<?xml version="1.0" encoding="UTF-8" standalone="no"?>
<svg
   xmlns:dc="http://purl.org/dc/elements/1.1/"
   xmlns:cc="http://creativecommons.org/ns#"
   xmlns:rdf="http://www.w3.org/1999/02/22-rdf-syntax-ns#"
   xmlns:svg="http://www.w3.org/2000/svg"
   xmlns="http://www.w3.org/2000/svg"
   id="svg4088"
   version="1.1"
   viewBox="0 0 54.364758 54.364758"
   height="54.364758mm"
   width="54.364758mm">
  <defs
     id="defs4082">
    <clipPath
       id="id0">
      <path
         id="path3816"
         d="m 8717,1868 c 104,-21 209,-43 343,-60 135,-16 301,-27 449,-32 148,-6 278,-6 409,2 130,8 261,23 390,42 129,20 258,44 386,68 0,96 0,191 -26,304 -26,114 -78,244 -159,358 -80,114 -189,212 -279,277 -91,64 -162,94 -245,118 -83,24 -176,41 -269,43 -92,1 -183,-15 -273,-40 -89,-25 -176,-59 -270,-123 -95,-63 -197,-154 -276,-262 -78,-107 -132,-231 -158,-350 -27,-118 -24,-232 -22,-345 z" />
    </clipPath>
  </defs>
  <metadata
     id="metadata4085">
  </metadata>
  <g
     transform="translate(-68.823576,-116.35929)"
     id="layer1">
    <g
       id="g3857"
       style="clip-rule:evenodd;fill-rule:evenodd;image-rendering:optimizeQuality;shape-rendering:geometricPrecision;text-rendering:geometricPrecision"
       transform="matrix(0.02027023,0,0,0.02027023,-101.79095,100.4877)">
      <circle
         style="fill:#fcdc6b"
         id="circle3837"
         r="1341"
         cy="2124"
         cx="9758"
         class="fil4" />
      <g
         id="g3845">
        <g
           id="g3843">
          <path
             style="fill:#201e1e"
             id="path3839"
             d="m 8892,1334 c 0,74 85,83 145,106 l 14,6 c -31,8 -198,42 -218,54 -22,12 -34,34 -37,57 v 19 c 4,33 30,63 79,63 23,0 50,-10 74,-15 l 214,-49 c 34,-8 185,-35 208,-54 41,-34 38,-85 9,-115 -13,-12 -37,-20 -54,-26 -66,-22 -316,-117 -363,-117 -37,0 -71,35 -71,71 z"
             class="fil5" />
          <path
             style="fill:#201e1e"
             id="path3841"
             d="m 10083,1488 c 0,63 50,75 95,84 48,10 96,23 143,33 l 214,49 c 41,10 50,14 91,14 28,0 62,-35 62,-63 0,-79 -41,-79 -105,-95 -50,-13 -100,-23 -150,-34 l 122,-46 c 2,-1 7,-5 10,-7 53,-47 25,-131 -52,-131 -18,0 -99,29 -118,36 -66,26 -173,57 -233,81 -39,15 -79,26 -79,79 z"
             class="fil5" />
        </g>
      </g>
      <path
         style="fill:#201e1e"
         id="path3847"
         d="m 8717,1868 c 104,-21 209,-43 343,-60 135,-16 301,-27 449,-32 148,-6 278,-6 409,2 130,8 261,23 390,42 129,20 258,44 386,68 0,96 0,191 -26,304 -26,114 -78,244 -159,358 -80,114 -189,212 -279,277 -91,64 -162,94 -245,118 -83,24 -176,41 -269,43 -92,1 -183,-15 -273,-40 -89,-25 -176,-59 -270,-123 -95,-63 -197,-154 -276,-262 -78,-107 -132,-231 -158,-350 -27,-118 -24,-232 -22,-345 z"
         class="fil5" />
      <g
         id="g3853"
         clip-path="url(#id0)">
        <g
           id="g3851">
          <ellipse
             style="fill:#f50953"
             id="ellipse3849"
             ry="595"
             rx="828"
             cy="2983"
             cx="9710"
             class="fil2" />
        </g>
      </g>
      <path
         style="fill:none"
         id="path3855"
         d="m 8717,1868 c 104,-21 209,-43 343,-60 135,-16 301,-27 449,-32 148,-6 278,-6 409,2 130,8 261,23 390,42 129,20 258,44 386,68 0,96 0,191 -26,304 -26,114 -78,244 -159,358 -80,114 -189,212 -279,277 -91,64 -162,94 -245,118 -83,24 -176,41 -269,43 -92,1 -183,-15 -273,-40 -89,-25 -176,-59 -270,-123 -95,-63 -197,-154 -276,-262 -78,-107 -132,-231 -158,-350 -27,-118 -24,-232 -22,-345 z"
         class="fil6" />
    </g>
  </g>
</svg>
