<?xml version="1.0" encoding="UTF-8" standalone="no"?>
<svg
   xmlns="http://www.w3.org/2000/svg"
   version="1.1"
   id="svg4261"
   xml:space="preserve"
   width="586.99335"
   height="565.99597"
   viewBox="0 0 586.99337 565.99595"><defs
     id="defs4265"><clipPath
       clipPathUnits="userSpaceOnUse"
       id="clipPath4277"><path
         d="M 0,791.273 H 1024 V 0 H 0 Z"
         id="path4275" /></clipPath></defs><g
     id="g4269"
     transform="matrix(1.3333333,0,0,-1.3333333,-389.65292,811.41078)"><g
       style="fill:none"
       id="g4279"
       transform="translate(694.3857,327.3421)"><path
         d="m 0,0 -12.676,-3.948 7.988,-10.602 c 3.661,-4.851 5.591,-10.596 5.591,-16.611 0,-13.555 -9.708,-25.016 -23.082,-27.252 l -12.679,-2.12 5.928,-11.409 c 2.059,-3.966 3.104,-8.237 3.104,-12.687 0,-14.567 -11.347,-26.626 -25.87,-27.555 l -159.49,-0.061 c -0.474,0.007 -19.761,0.376 -33.902,12.403 -3.067,2.611 -5.879,4.455 -8.846,5.801 l -3.419,1.555 V 54.948 l 16.626,14.218 56.136,104.057 c 2.471,4.085 4.29,8.499 5.404,13.104 1.141,4.69 1.534,9.549 1.162,14.44 l -4.437,58.374 c 3.861,2.2 8.259,3.379 12.744,3.379 24.233,0 44.995,-38.717 44.995,-70.415 0,-4.397 -0.338,-8.822 -0.995,-13.138 l -9.752,-63.192 h 121.667 c 7.769,0 15.446,-3.243 21.06,-8.898 5.23,-5.268 8.088,-12.002 8.038,-18.965 C 15.235,79.29 11.228,71.332 4.299,66.078 L -7.021,57.5 5.335,50.495 C 14.013,45.58 19.402,36.353 19.402,26.418 19.402,14.236 11.603,3.619 0,0"
         style="fill:none;fill-opacity:1;fill-rule:nonzero;stroke:none"
         id="path4281" /></g><g
       style="fill:none"
       id="g4283"
       transform="translate(302.1992,411.2884)"><path
         d="m 0,0 c -0.311,0 -0.611,-0.258 -0.611,-0.525 v -216.829 c 0,-0.267 0.3,-0.525 0.611,-0.525 h 124.875 c 0.311,0 0.61,0.258 0.61,0.525 V -0.525 c 0,0.267 -0.299,0.525 -0.61,0.525 z"
         style="fill:none;fill-opacity:1;fill-rule:nonzero;stroke:none"
         id="path4285" /></g><g
       style="stroke:#606770;stroke-opacity:1"
       id="g4287"
       transform="translate(694.3857,327.3421)"><path
         d="m 0,0 -12.676,-3.948 7.988,-10.602 c 3.661,-4.851 5.591,-10.596 5.591,-16.611 0,-13.555 -9.708,-25.016 -23.082,-27.252 l -12.679,-2.12 5.928,-11.409 c 2.059,-3.966 3.104,-8.237 3.104,-12.687 0,-14.567 -11.347,-26.626 -25.87,-27.555 l -159.49,-0.061 c -0.474,0.007 -19.761,0.376 -33.902,12.403 -3.067,2.611 -5.879,4.455 -8.846,5.801 l -3.419,1.555 V 54.948 l 16.626,14.218 56.136,104.057 c 2.471,4.085 4.29,8.499 5.404,13.104 1.141,4.69 1.534,9.549 1.162,14.44 l -4.437,58.374 c 3.861,2.2 8.259,3.379 12.744,3.379 24.233,0 44.995,-38.717 44.995,-70.415 0,-4.397 -0.338,-8.822 -0.995,-13.138 l -9.752,-63.192 h 121.667 c 7.769,0 15.446,-3.243 21.06,-8.898 5.23,-5.268 8.088,-12.002 8.038,-18.965 C 15.235,79.29 11.228,71.332 4.299,66.078 L -7.021,57.5 5.335,50.495 C 14.013,45.58 19.402,36.353 19.402,26.418 19.402,14.236 11.603,3.619 0,0 m -276.048,-124.067 c 0,-0.263 -0.258,-0.518 -0.52,-0.518 h -106.364 c -0.263,0 -0.518,0.255 -0.518,0.518 V 76.556 c 0,0.262 0.255,0.52 0.518,0.52 h 106.364 c 0.262,0 0.52,-0.258 0.52,-0.52 V 63.561 -104.527 Z M 38.099,26.418 c 0,12.598 -5.162,24.514 -13.963,33.131 6.285,7.972 9.782,17.81 9.854,28.235 0.082,11.98 -4.701,23.441 -13.465,32.269 -9.101,9.162 -21.612,14.418 -34.328,14.418 h -99.864 l 6.431,41.657 c 0.803,5.263 1.21,10.64 1.21,15.977 0,41.21 -27.823,89.111 -63.692,89.111 -10.38,0 -20.485,-3.66 -28.457,-10.311 l -3.697,-3.083 5.206,-68.47 c 0.221,-2.928 -0.01,-5.82 -0.689,-8.616 -0.681,-2.809 -1.796,-5.493 -3.317,-7.976 l -54.852,-101.649 -2.055,-1.757 c -1.362,9.271 -9.346,16.417 -18.989,16.417 h -106.364 c -10.594,0 -19.214,-8.619 -19.214,-19.215 v -200.623 c 0,-10.594 8.62,-19.214 19.214,-19.214 h 106.364 c 10.596,0 19.215,8.62 19.215,19.214 v 10.107 c 0.052,-0.043 0.098,-0.076 0.149,-0.12 19.6,-16.67 44.923,-16.861 45.991,-16.861 h 0.004 l 159.795,0.061 0.512,0.014 c 24.547,1.362 43.772,21.672 43.772,46.237 0,3.716 -0.433,7.356 -1.292,10.893 16.729,7.15 28.021,23.643 28.021,42.575 0,6.265 -1.242,12.347 -3.642,18.002 13.579,8.259 22.142,23.058 22.142,39.577"
         style="fill:#3578e5;fill-opacity:1;fill-rule:nonzero;stroke:none;stroke-opacity:1"
         id="path4289" /></g></g></svg>