<?xml version="1.0" encoding="UTF-8" standalone="no"?>
<svg
   xmlns="http://www.w3.org/2000/svg"
   version="1.1"
   id="svg4261"
   xml:space="preserve"
   width="586.99335"
   height="565.99597"
   viewBox="0 0 586.99337 565.99595"><defs
     id="defs4265"><clipPath
       clipPathUnits="userSpaceOnUse"
       id="clipPath4277"><path
         d="M 0,791.273 H 1024 V 0 H 0 Z"
         id="path4275" /></clipPath></defs><g
     id="g4269"
     transform="matrix(1.3333333,0,0,-1.3333333,-389.65292,811.41078)"><g
       style="fill:none"
       id="g4279"
       transform="translate(694.3857,327.3421)"><path
         d="m 0,0 -12.676,-3.948 7.988,-10.602 c 3.661,-4.851 5.591,-10.596 5.591,-16.611 0,-13.555 -9.708,-25.016 -23.082,-27.252 l -12.679,-2.12 5.928,-11.409 c 2.059,-3.966 3.104,-8.237 3.104,-12.687 0,-14.567 -11.347,-26.626 -25.87,-27.555 l -159.49,-0.061 c -0.474,0.007 -19.761,0.376 -33.902,12.403 -3.067,2.611 -5.879,4.455 -8.846,5.801 l -3.419,1.555 V 54.948 l 16.626,14.218 56.136,104.057 c 2.471,4.085 4.29,8.499 5.404,13.104 1.141,4.69 1.534,9.549 1.162,14.44 l -4.437,58.374 c 3.861,2.2 8.259,3.379 12.744,3.379 24.233,0 44.995,-38.717 44.995,-70.415 0,-4.397 -0.338,-8.822 -0.995,-13.138 l -9.752,-63.192 h 121.667 c 7.769,0 15.446,-3.243 21.06,-8.898 5.23,-5.268 8.088,-12.002 8.038,-18.965 C 15.235,79.29 11.228,71.332 4.299,66.078 L -7.021,57.5 5.335,50.495 C 14.013,45.58 19.402,36.353 19.402,26.418 19.402,14.236 11.603,3.619 0,0"
         style="fill:none;fill-opacity:1;fill-rule:nonzero;stroke:none"
         id="path4281" /></g><g
       style="fill:none"
       id="g4283"
       transform="translate(302.1992,411.2884)"><path
         d="m 0,0 c -0.311,0 -0.611,-0.258 -0.611,-0.525 v -216.829 c 0,-0.267 0.3,-0.525 0.611,-0.525 h 124.875 c 0.311,0 0.61,0.258 0.61,0.525 V -0.525 c 0,0.267 -0.299,0.525 -0.61,0.525 z"
         style="fill:none;fill-opacity:1;fill-rule:nonzero;stroke:none"
         id="path4285" /></g><g
       style="stroke:#606770;stroke-opacity:1"
       id="g4287"
       transform="translate(694.3857,327.3421)"><path
         transform="matrix(0.75000002,0,0,-0.75000002,-402.146,281.216)"
         id="path4565"
         d="M 25.739548,407.03256 V 272.99675 h 70.79356 70.793562 v 134.03581 134.0358 H 96.533108 25.739548 Z"
         style="fill:#3578e5;fill-opacity:1;stroke:none;stroke-width:0.94391412;stroke-opacity:0.9748744" /><path
         transform="matrix(0.75000002,0,0,-0.75000002,-402.146,281.216)"
         id="path4567"
         d="m 241.89588,522.61217 c -13.2167,-2.83412 -21.06131,-6.49897 -33.03699,-15.43422 -3.89365,-2.90511 -8.88459,-6.08986 -11.09099,-7.07722 l -4.01164,-1.79521 V 399.92506 301.5446 l 10.91596,-9.32386 10.91596,-9.32385 38.76925,-71.732 c 22.01641,-40.73538 39.90653,-74.94088 41.40111,-79.15798 4.09729,-11.5608 4.17837,-16.79218 0.90792,-58.576861 -1.62228,-20.726988 -2.8222,-39.19454 -2.66647,-41.039005 0.25465,-3.016213 0.71043,-3.51672 4.53074,-4.975349 6.0063,-2.293255 16.55525,-2.218775 22.85451,0.161362 19.75454,7.464141 38.70097,36.001699 45.74869,68.907754 1.27812,5.967609 1.70244,11.892759 1.65612,23.125899 -0.0576,13.96658 -0.57237,18.32315 -6.84337,57.91618 -3.72961,23.54746 -6.7811,42.98029 -6.7811,43.18407 0,0.20378 37.75902,0.37052 83.90892,0.37052 80.92355,0 84.12395,0.0665 89.95214,1.86655 20.90771,6.45774 32.20243,28.2041 24.64353,47.44756 -2.88911,7.3551 -7.20327,12.40114 -17.15547,20.06582 -5.25621,4.04807 -9.54414,7.61502 -9.52872,7.92656 0.0154,0.31153 4.44879,3.06543 9.85195,6.11979 14.83667,8.38703 20.61638,14.96311 23.68764,26.95142 3.92639,15.32618 -4.14614,33.34362 -18.13726,40.48135 -1.99957,1.02011 -7.98846,3.20708 -13.30863,4.85993 -5.32017,1.65285 -9.67304,3.24194 -9.67304,3.53132 0,0.28936 2.70998,4.18543 6.02219,8.65791 7.53172,10.17011 9.5969,14.25595 10.93478,21.63387 2.73936,15.10669 -5.47926,31.16203 -19.61959,38.32748 -3.71197,1.88099 -22.36009,6.22114 -26.73012,6.22114 -0.40983,0 1.89445,5.38722 5.12064,11.97161 l 5.86577,11.9716 -0.005,8.55853 c -0.004,7.60465 -0.33058,9.24732 -2.92862,14.73868 -3.52283,7.44604 -7.41159,12.05048 -13.37528,15.83686 -9.64143,6.12139 -3.4089,5.8361 -125.68582,5.75341 -91.10803,-0.0616 -112.0729,-0.31057 -117.10999,-1.3907 z"
         style="fill:#3578e5;fill-opacity:1;stroke:none;stroke-width:0.94391412;stroke-opacity:0.9748744" /></g></g></svg>